<svg width="799" height="180" viewBox="0 0 799 180" fill="none" xmlns="http://www.w3.org/2000/svg">
<g clip-path="url(#clip0_102_8)">
<path d="M105.558 35.9133V64.2154L70.3719 83.8463V44.5149L95.6688 30.6413C96.6518 30.0908 97.7652 29.7954 98.9008 29.7838C100.036 29.7722 101.156 30.0448 102.151 30.5751C103.146 31.1055 103.982 31.8756 104.579 32.8109C105.176 33.7461 105.513 34.8147 105.558 35.9133Z" fill="#0EA5EA"/>
<path opacity="0.3" d="M35.1854 35.9133V64.2154L70.372 83.8463V44.5149L45.0749 30.6413C44.0918 30.0908 42.9788 29.7954 41.8429 29.7838C40.707 29.7722 39.5877 30.0448 38.5928 30.5751C37.5979 31.1055 36.7615 31.8756 36.1645 32.8109C35.5675 33.7461 35.2305 34.8147 35.1854 35.9133Z" fill="#0EA5EA"/>
<path d="M98.5077 147.025L73.9052 132.98L74.3017 92.7295L108.492 112.248L107.999 141.067C107.989 142.193 107.694 143.305 107.14 144.295C106.586 145.286 105.794 146.121 104.839 146.72C103.885 147.32 102.8 147.663 101.69 147.716C100.581 147.769 99.4849 147.532 98.5077 147.025Z" fill="#0EA5EA"/>
<path opacity="0.3" d="M133.431 86.0089L108.829 71.9636L74.3016 92.7295L108.492 112.248L133.106 97.1998C134.073 96.6206 134.882 95.8016 135.456 94.8231C136.029 93.844 136.348 92.7383 136.381 91.6125C136.414 90.4868 136.159 89.3794 135.642 88.3975C135.125 87.4155 134.364 86.5929 133.431 86.0089Z" fill="#0EA5EA"/>
<path opacity="0.3" d="M40.2518 147.025L64.8546 132.98L64.4581 92.7295L30.2673 112.248L30.7611 141.067C30.7704 142.193 31.0662 143.305 31.6198 144.295C32.1734 145.286 32.9658 146.121 33.9206 146.72C34.8752 147.32 35.9598 147.663 37.0692 147.716C38.1783 147.769 39.2747 147.532 40.2518 147.025Z" fill="#0EA5EA"/>
<path d="M5.32838 86.0089L29.9312 71.9636L64.4582 92.7295L30.2674 112.248L5.6533 97.1998C4.68683 96.6206 3.87757 95.8016 3.30387 94.8231C2.7302 93.844 2.41158 92.7383 2.37889 91.6125C2.34621 90.4868 2.60056 89.3794 3.1173 88.3975C3.63407 87.4155 4.39569 86.5929 5.32838 86.0089Z" fill="#0EA5EA"/>
</g>
<path d="M243.044 48.1885L212.305 132H191.893L161.154 48.1885H179.165L202.219 114.829L225.153 48.1885H243.044ZM261.648 57.5543C258.686 57.5543 256.205 56.6337 254.204 54.7926C252.282 52.8714 251.322 50.5099 251.322 47.7082C251.322 44.9065 252.282 42.5851 254.204 40.7439C256.205 38.8228 258.686 37.8622 261.648 37.8622C264.61 37.8622 267.051 38.8228 268.973 40.7439C270.974 42.5851 271.975 44.9065 271.975 47.7082C271.975 50.5099 270.974 52.8714 268.973 54.7926C267.051 56.6337 264.61 57.5543 261.648 57.5543ZM269.933 65.4791V132H253.123V65.4791H269.933ZM282.219 98.4994C282.219 91.7753 283.54 85.8116 286.182 80.6084C288.903 75.4052 292.586 71.4028 297.228 68.6011C301.871 65.7993 307.034 64.3985 312.718 64.3985C317.041 64.3985 321.163 65.3591 325.086 67.2802C329.008 69.1214 332.13 71.6029 334.451 74.7248V43.1454H351.502V132H334.451V122.154C332.37 125.436 329.448 128.078 325.686 130.079C321.924 132.08 317.561 133.081 312.598 133.081C306.994 133.081 301.871 131.64 297.228 128.758C292.586 125.876 288.903 121.834 286.182 116.631C283.54 111.347 282.219 105.304 282.219 98.4994ZM334.571 98.7396C334.571 94.6571 333.771 91.1749 332.17 88.2932C330.569 85.3313 328.408 83.09 325.686 81.569C322.964 79.968 320.042 79.1675 316.921 79.1675C313.799 79.1675 310.917 79.928 308.275 81.4489C305.634 82.9699 303.472 85.2113 301.791 88.1731C300.19 91.0548 299.39 94.497 299.39 98.4994C299.39 102.502 300.19 106.024 301.791 109.066C303.472 112.028 305.634 114.309 308.275 115.91C310.997 117.511 313.879 118.312 316.921 118.312C320.042 118.312 322.964 117.551 325.686 116.03C328.408 114.429 330.569 112.188 332.17 109.306C333.771 106.344 334.571 102.822 334.571 98.7396ZM363.597 98.4994C363.597 91.7753 364.918 85.8116 367.56 80.6084C370.281 75.4052 373.924 71.4028 378.486 68.6011C383.129 65.7993 388.293 64.3985 393.976 64.3985C398.939 64.3985 403.262 65.3991 406.944 67.4003C410.706 69.4015 413.708 71.9231 415.95 74.965V65.4791H432.88V132H415.95V122.274C413.788 125.396 410.786 127.998 406.944 130.079C403.182 132.08 398.819 133.081 393.856 133.081C388.252 133.081 383.129 131.64 378.486 128.758C373.924 125.876 370.281 121.834 367.56 116.631C364.918 111.347 363.597 105.304 363.597 98.4994ZM415.95 98.7396C415.95 94.6571 415.149 91.1749 413.548 88.2932C411.947 85.3313 409.786 83.09 407.064 81.569C404.342 79.968 401.421 79.1675 398.299 79.1675C395.177 79.1675 392.295 79.928 389.653 81.4489C387.012 82.9699 384.85 85.2113 383.169 88.1731C381.568 91.0548 380.768 94.497 380.768 98.4994C380.768 102.502 381.568 106.024 383.169 109.066C384.85 112.028 387.012 114.309 389.653 115.91C392.375 117.511 395.257 118.312 398.299 118.312C401.421 118.312 404.342 117.551 407.064 116.03C409.786 114.429 411.947 112.188 413.548 109.306C415.149 106.344 415.95 102.822 415.95 98.7396ZM529.301 116.03H495.921L490.397 132H472.746L502.885 48.0684H522.457L552.595 132H534.824L529.301 116.03ZM524.738 102.582L512.611 67.5204L500.483 102.582H524.738ZM559.538 98.6195C559.538 91.9754 560.899 86.0918 563.621 80.9687C566.422 75.7655 570.185 71.723 574.907 68.8412C579.63 65.9594 584.834 64.5185 590.517 64.5185C595.24 64.5185 599.403 65.4391 603.005 67.2802C606.687 69.0413 609.649 71.3227 611.89 74.1244V65.4791H628.821V163.699H611.89V122.874C609.649 125.756 606.647 128.158 602.885 130.079C599.122 132 594.88 132.961 590.157 132.961C584.553 132.961 579.39 131.52 574.667 128.638C570.024 125.676 566.342 121.594 563.621 116.39C560.899 111.187 559.538 105.264 559.538 98.6195ZM611.89 98.7396C611.89 94.6571 611.05 91.1349 609.369 88.1731C607.688 85.2113 605.486 82.9699 602.765 81.4489C600.123 79.928 597.281 79.1675 594.239 79.1675C591.278 79.1675 588.436 79.928 585.714 81.4489C583.072 82.9699 580.911 85.2113 579.23 88.1731C577.549 91.0548 576.709 94.537 576.709 98.6195C576.709 102.702 577.549 106.264 579.23 109.306C580.911 112.268 583.072 114.509 585.714 116.03C588.436 117.551 591.278 118.312 594.239 118.312C597.281 118.312 600.123 117.551 602.765 116.03C605.486 114.509 607.688 112.268 609.369 109.306C611.05 106.344 611.89 102.822 611.89 98.7396ZM708.037 65.4791V132H691.107V123.595C688.946 126.477 686.104 128.758 682.582 130.439C679.14 132.04 675.377 132.841 671.295 132.841C666.092 132.841 661.489 131.76 657.486 129.599C653.484 127.357 650.322 124.115 648 119.873C645.759 115.55 644.638 110.427 644.638 104.503V65.4791H661.449V102.102C661.449 107.385 662.77 111.467 665.411 114.349C668.053 117.151 671.655 118.552 676.218 118.552C680.861 118.552 684.503 117.151 687.145 114.349C689.786 111.467 691.107 107.385 691.107 102.102V65.4791H708.037ZM720.301 98.4994C720.301 91.7753 721.622 85.8116 724.263 80.6084C726.985 75.4052 730.627 71.4028 735.19 68.6011C739.833 65.7993 744.996 64.3985 750.679 64.3985C755.643 64.3985 759.965 65.3991 763.647 67.4003C767.41 69.4015 770.412 71.9231 772.653 74.965V65.4791H789.583V132H772.653V122.274C770.492 125.396 767.49 127.998 763.647 130.079C759.885 132.08 755.522 133.081 750.559 133.081C744.956 133.081 739.833 131.64 735.19 128.758C730.627 125.876 726.985 121.834 724.263 116.631C721.622 111.347 720.301 105.304 720.301 98.4994ZM772.653 98.7396C772.653 94.6571 771.852 91.1749 770.251 88.2932C768.651 85.3313 766.489 83.09 763.768 81.569C761.046 79.968 758.124 79.1675 755.002 79.1675C751.88 79.1675 748.998 79.928 746.357 81.4489C743.715 82.9699 741.554 85.2113 739.873 88.1731C738.272 91.0548 737.471 94.497 737.471 98.4994C737.471 102.502 738.272 106.024 739.873 109.066C741.554 112.028 743.715 114.309 746.357 115.91C749.078 117.511 751.96 118.312 755.002 118.312C758.124 118.312 761.046 117.551 763.768 116.03C766.489 114.429 768.651 112.188 770.251 109.306C771.852 106.344 772.653 102.822 772.653 98.7396Z" fill="#D7E5FA"/>
<defs>
<clipPath id="clip0_102_8">
<rect width="141" height="121.26" fill="white" transform="translate(0 29.37)"/>
</clipPath>
</defs>
</svg>
